<?xml version="1.0" standalone="no"?>
<!DOCTYPE svg PUBLIC "-//W3C//DTD SVG 20010904//EN"
 "http://www.w3.org/TR/2001/REC-SVG-20010904/DTD/svg10.dtd">
<svg version="1.0" xmlns="http://www.w3.org/2000/svg"
 width="700.000000pt" height="700.000000pt" viewBox="0 0 700.000000 700.000000"
 preserveAspectRatio="xMidYMid meet">
<metadata>
Created by potrace 1.14, written by Peter Selinger 2001-2017
</metadata>
<g transform="translate(0.000000,700.000000) scale(0.100000,-0.100000)"
fill="#000000" stroke="none">
<path d="M1948 5522 c-49 -3 -63 -8 -93 -36 -20 -19 -35 -44 -36 -57 -1 -37
-1 -308 0 -363 1 -42 6 -53 36 -82 l36 -33 157 -3 157 -3 0 -1445 0 -1445
-164 -5 -163 -5 -29 -35 c-16 -19 -29 -43 -30 -55 0 -11 -1 -105 -1 -209 0
-171 2 -191 19 -215 40 -53 29 -52 658 -52 546 0 587 2 609 18 13 10 29 26 35
36 15 24 15 430 0 458 -5 11 -25 29 -42 39 -28 17 -51 20 -177 20 l-146 0 1
120 0 120 280 286 280 286 85 -103 c47 -57 120 -146 163 -199 44 -52 86 -104
96 -115 9 -11 88 -108 176 -215 88 -107 162 -197 165 -200 4 -4 89 -108 150
-184 8 -10 20 -23 25 -30 6 -6 59 -70 117 -142 110 -134 133 -156 180 -168 15
-3 161 -6 324 -7 318 0 327 1 355 53 17 31 16 406 0 437 -7 12 -27 31 -44 41
-29 18 -52 20 -227 20 l-195 1 -145 181 c-156 196 -226 282 -335 417 -39 47
-127 156 -195 241 -68 85 -127 157 -130 160 -17 16 -160 201 -160 207 0 8 102
114 603 626 l278 284 227 1 c125 0 235 1 244 1 22 1 63 40 72 66 5 16 10 309
7 412 -1 12 -13 36 -28 53 l-26 32 -311 -4 -311 -3 -50 -29 c-32 -19 -206
-187 -480 -463 -625 -628 -1142 -1147 -1162 -1166 -17 -15 -18 34 -17 1171 1
1164 0 1188 -19 1224 -11 20 -32 42 -46 48 -24 10 -633 19 -773 12z"/>
</g>
</svg>
